<svg xmlns="http://www.w3.org/2000/svg" viewBox="0 0 800 282.83"><defs><style>.cls-1{fill:#f1511b;}.cls-2{fill:#1eadef;}.cls-3{fill:#333;}</style></defs><g id="图层_2" data-name="图层 2"><g id="YGG"><path class="cls-1" d="M201.19,136.48c0-4,0-8-.28-12,0-3.09-.37-6.11-.63-9.14-.5-6.42-1.16-12.71-2.12-18.79-.48-3.14-1.07-6.2-1.7-9.25A203.47,203.47,0,0,0,190,62.79c-.71-2.12-1.44-4.19-2.21-6.22-1.67-4.42-3.45-8.49-5.37-12.57-1-2-2-4-3-5.94C166.53,14.43,148.87,0,129.06,0,97.93,0,71.9,35.8,61.68,87.33c5-3.85,10.25-7.62,15.79-11.32,10.25-37.41,29.8-63.33,51.59-63.33,13.7,0,26.46,10.27,36.62,27.16,1.13,1.84,2.18,3.79,3.22,5.66a131.54,131.54,0,0,1,5.66,12.09c.79,1.95,1.5,4,2.21,6,1.41,4,2.83,8.07,3.93,12.34q1.22,4.56,2.3,9.25c1.3,5.83,2.4,11.89,3.25,18.14.42,2.83.82,5.83,1.1,8.86a240.28,240.28,0,0,1,1.22,24.14,219.6,219.6,0,0,1-11.8,72.72c-.71,2-1.44,4.08-2.21,6a132.59,132.59,0,0,1-5.66,12.14c-1,2-2.06,3.85-3.14,5.66-6.9,11.46-15,19.81-23.74,24a16.1,16.1,0,0,0-12.93-6.82,16.38,16.38,0,0,0,0,32.74,16.15,16.15,0,0,0,15.76-13.27c13.33-5.32,25.21-17.51,34.58-34.69,1-1.9,2-3.91,3-5.91q2.83-6,5.4-12.6c.77-2,1.5-4.1,2.21-6.22a235.12,235.12,0,0,0,11.15-73.66Z"/><path class="cls-1" d="M102.6,211.35c-37.52,9.77-69.84,5.89-80.76-13-6.85-11.86-4.3-28.05,5.24-45.28,1-1.87,2.2-3.76,3.42-5.66a131,131,0,0,1,7.64-10.92c1.3-1.64,2.83-3.31,4.13-4.95,2.83-3.2,5.66-6.4,8.72-9.57,2.2-2.21,4.5-4.41,6.87-6.59,4.39-4.05,9.06-8,14.15-11.92,2.35-1.81,4.67-3.62,7.13-5.37A216.76,216.76,0,0,1,99.32,84.89,220,220,0,0,1,168.2,58.75a122.72,122.72,0,0,0-5.66-12A234,234,0,0,0,93.15,73.91c-3.51,2-6.88,4.13-10.22,6.26-2.6,1.67-5.12,3.36-7.61,5.09C70,88.91,64.91,92.65,60.13,96.58c-2.49,2-4.84,4-7.16,6.08a203,203,0,0,0-18.06,17.86c-1.5,1.67-2.83,3.34-4.3,5Q26,131,22.29,136.48c-1.24,1.84-2.49,3.71-3.62,5.66-14.15,23-17.68,45.53-7.78,62.68,9.54,16.52,29.66,24.7,55.21,24.7a171.41,171.41,0,0,0,54.07-10C114.35,217,108.49,214.33,102.6,211.35ZM18.67,130.9c2.58-3.67,5.35-7.35,8.49-11-6.39-11.6-9.56-22.64-8.91-32.35a16.29,16.29,0,0,0,6.31-30.3A16.66,16.66,0,0,0,16.38,55,16.43,16.43,0,0,0,2.23,63.22,16.21,16.21,0,0,0,.56,75.64a16,16,0,0,0,5.26,7.87C3.87,97.82,8.48,114.21,18.67,130.9Zm186.65-28.24c.82,6.31,1.47,12.71,1.84,19.3,27.28,27.73,40,57.56,29.15,76.41-6.85,11.85-22.16,17.77-41.88,18.13q-2.46,6.66-5.32,12.77h2.83c25.46,0,45.67-8.18,55.21-24.71,15.73-26.91-2.32-67.26-41.83-101.9Z"/><path class="cls-1" d="M129.06,202.5c-2.83-1.13-5.46-2.24-8.23-3.48q-11-5-21.51-11a220.08,220.08,0,0,1-57.08-46.49,124.8,124.8,0,0,0-7.47,11A234.45,234.45,0,0,0,93,198.93c3.51,2,7,3.91,10.53,5.66,2.83,1.44,5.49,2.83,8.2,4q8.74,4.16,17.32,7.52c3,1.14,5.94,2.18,8.91,3.2a201.08,201.08,0,0,0,24.45,6.74,118.8,118.8,0,0,0,5.66-12c-4.13-.77-8.35-1.67-12.65-2.83-3-.79-6.08-1.7-9.17-2.63C140.69,206.94,134.89,204.87,129.06,202.5ZM256,63.22A16.44,16.44,0,0,0,241.8,55a15.74,15.74,0,0,0-5.38,1.05c-11.32-8.75-27.84-12.91-47.28-12.46,1.92,4.11,3.7,8.49,5.34,12.82,13.33.26,24.57,3.09,32.6,8.49a16.2,16.2,0,0,0,.57,14.63A16.35,16.35,0,0,0,256,63.19Z"/><circle class="cls-2" cx="129.06" cy="138.12" r="31.58"/><path class="cls-3" d="M415.77,198.18,314.28,29l-26,1.68,1.42,224L328,253.3l-7.83-152.13,90.6,152.69,37.22-2V26.48l-38,.82Zm97.87-64.31,77.74-2,1.42,27.45-57.6-.61-1.42,33.86,89.74-2.54,1.68-94.22L476.47,99.75l3.36,156.3,149.89-1.63-2.28-37.78-112.12,5.29Zm144,122.48,140.08-2.8L800,96.39,654,100Zm35.24-34.42-1.42-88.06,70.77.25-1.68,83.34Z"/></g></g></svg>