<svg xmlns="http://www.w3.org/2000/svg" viewBox="0 0 730.13 800">
	<defs>
		<style>.cls-1{fill:#f1511b;}.cls-2{fill:#1eadef;}</style>
	</defs>
	<path class="cls-1"
	      d="M569.07,386c0-11.44,0-22.73-.8-33.85,0-8.73-1-17.29-1.76-25.86-1.44-18.17-3.28-35.93-6-53.14-1.37-8.89-3-17.53-4.81-26.18a580.61,580.61,0,0,0-18.17-69.39c-2-6-4.08-11.85-6.24-17.61-4.72-12.49-9.76-24-15.21-35.54-2.8-5.68-5.52-11.36-8.48-16.81C471,40.82,421.08,0,365.05,0,277,0,203.37,101.25,174.47,247c14.25-10.88,29-21.53,44.66-32,29-105.82,84.29-179.13,145.92-179.13,38.74,0,74.84,29.05,103.57,76.84,3.2,5.2,6.16,10.72,9.12,16a375.26,375.26,0,0,1,16,34.18C496,168.4,498,174.17,500,179.93c4,11.21,8,22.81,11.12,34.9q3.45,12.88,6.48,26.17c3.69,16.49,6.81,33.62,9.21,51.31,1.2,8,2.32,16.48,3.12,25.05a679.65,679.65,0,0,1,3.44,68.27A621.14,621.14,0,0,1,500,591.34c-2,5.76-4.09,11.52-6.25,17a375.6,375.6,0,0,1-16,34.34c-2.88,5.52-5.84,10.89-8.88,16-19.53,32.42-42.42,56-67.15,67.95a45.51,45.51,0,0,0-36.58-19.29,46.34,46.34,0,0,0,0,92.61,45.71,45.71,0,0,0,44.58-37.54c37.7-15.05,71.32-49.54,97.81-98.13,3-5.36,5.76-11,8.48-16.73q8-16.89,15.29-35.61c2.16-5.77,4.24-11.61,6.24-17.61A665.51,665.51,0,0,0,569.07,386Z"/>
	<path class="cls-1"
	      d="M290.21,597.82C184.08,625.43,92.67,614.47,61.78,561.08,42.41,527.54,49.61,481.76,76.58,433c3-5.29,6.25-10.65,9.69-16a373.23,373.23,0,0,1,21.61-30.9c3.68-4.64,8-9.36,11.69-14,8-9.05,16-18.09,24.65-27.06,6.24-6.24,12.72-12.48,19.45-18.65,12.4-11.44,25.61-22.73,40-33.69,6.64-5.13,13.2-10.25,20.17-15.21,17.77-13.37,37-25.53,57.07-37.38a622.21,622.21,0,0,1,194.81-74,345.2,345.2,0,0,0-16-33.93,661.35,661.35,0,0,0-196.26,76.83c-9.93,5.77-19.45,11.69-28.9,17.69-7.36,4.73-14.48,9.53-21.53,14.41-15,10.33-29.45,20.89-43,32-7,5.68-13.69,11.44-20.25,17.21a575.41,575.41,0,0,0-51.07,50.5c-4.24,4.72-8,9.45-12.16,14.17q-13,15.53-23.53,31c-3.52,5.21-7.05,10.49-10.25,16-40,65.07-50,128.79-22,177.29,27,46.74,83.88,69.87,156.16,69.87a485.3,485.3,0,0,0,153-28.25C323.43,613.75,306.86,606.22,290.21,597.82ZM52.81,370.27c7.29-10.41,15.13-20.82,24-31.22-18.09-32.82-27-64-25.21-91.49a46.1,46.1,0,0,0,17.85-85.72,46.29,46.29,0,0,0-63.15,17A45.78,45.78,0,0,0,1.59,214,45.13,45.13,0,0,0,16.47,236.2C11,276.7,24,323,52.81,370.27Zm528-79.88c2.32,17.84,4.16,35.93,5.2,54.58,77.16,78.44,113.17,162.8,82.44,216.11-19.37,33.54-62.67,50.27-118.46,51.31q-7,18.81-15.05,36.09h8c72,0,129.18-23.13,156.15-69.87,44.51-76.12-6.56-190.26-118.29-288.22Z"/>
	<path class="cls-1"
	      d="M365.05,572.77c-8-3.21-15.45-6.33-23.29-9.85q-31.17-14.1-60.83-31.21A622.46,622.46,0,0,1,119.49,400.2a352.51,352.51,0,0,0-21.14,31.22A663.3,663.3,0,0,0,263.08,562.68c9.92,5.76,19.85,11.05,29.77,16,8,4.08,15.53,8,23.21,11.45q24.74,11.76,49,21.29c8.48,3.2,16.81,6.16,25.21,9a570.76,570.76,0,0,0,69.16,19,341.76,341.76,0,0,0,16-33.86c-11.68-2.16-23.61-4.72-35.77-8-8.57-2.24-17.21-4.8-25.94-7.44C397.94,585.33,381.54,579.49,365.05,572.77Zm358.9-394a46.5,46.5,0,0,0-40-23.13,45,45,0,0,0-15.21,3c-32-24.73-78.76-36.5-133.75-35.22,5.45,11.61,10.49,24,15.13,36.26,37.7.72,69.48,8.72,92.21,24a45.75,45.75,0,0,0,1.6,41.38,46.24,46.24,0,0,0,80-46.34Z"/>
	<circle class="cls-2" cx="365.05" cy="390.68" r="89.32"/>
</svg>